<svg width="15" height="16" viewBox="0 0 15 16" fill="none" xmlns="http://www.w3.org/2000/svg">
<path d="M0.791748 13.0002V6.37516C0.791748 5.98836 0.875081 5.62433 1.04175 5.28308C1.20841 4.94169 1.45147 4.646 1.77091 4.396L6.02092 1.2085C6.47925 0.875163 6.9723 0.708496 7.50008 0.708496C8.02786 0.708496 8.52091 0.875163 8.97925 1.2085L13.2292 4.396C13.5487 4.646 13.7917 4.94169 13.9584 5.28308C14.1251 5.62433 14.2084 5.98836 14.2084 6.37516V13.0002C14.2084 13.7592 13.9468 14.4003 13.4236 14.9235C12.9003 15.4468 12.2591 15.7085 11.5001 15.7085H10.3959C10.0584 15.7085 9.76918 15.588 9.52821 15.347C9.28723 15.1061 9.16675 14.8168 9.16675 14.4793V10.5627C9.16675 10.2252 9.04647 9.93593 8.80591 9.69495C8.56522 9.45398 8.2764 9.3335 7.93946 9.3335H7.068C6.73105 9.3335 6.44105 9.45398 6.198 9.69495C5.95494 9.93593 5.83342 10.2252 5.83342 10.5627V14.4793C5.83342 14.8168 5.71293 15.1061 5.47196 15.347C5.23098 15.588 4.94175 15.7085 4.60425 15.7085H3.50008C2.74105 15.7085 2.09994 15.4468 1.57675 14.9235C1.05341 14.4003 0.791748 13.7592 0.791748 13.0002Z" fill="#5A5A5A"/>
</svg>
